<mxfile host="app.diagrams.net" modified="2022-01-22T11:52:06.936Z" agent="5.0 (Macintosh; Intel Mac OS X 10_15_7) AppleWebKit/605.1.15 (KHTML, like Gecko) Version/14.1.1 Safari/605.1.15" etag="Y8YManhWpbEwiACbt5wH" version="16.4.5" type="github">
  <diagram id="JXhgUZ9sHJ3venF65xt6" name="Page-1">
    <mxGraphModel dx="571" dy="447" grid="1" gridSize="10" guides="1" tooltips="1" connect="1" arrows="1" fold="1" page="1" pageScale="1" pageWidth="827" pageHeight="1169" math="0" shadow="0">
      <root>
        <mxCell id="0" />
        <mxCell id="1" parent="0" />
        <mxCell id="aKyzVVl0rhLCT20Bn6Dx-5" value="" style="rounded=0;whiteSpace=wrap;html=1;" vertex="1" parent="1">
          <mxGeometry x="30" y="40" width="720" height="140" as="geometry" />
        </mxCell>
        <mxCell id="aKyzVVl0rhLCT20Bn6Dx-1" style="edgeStyle=orthogonalEdgeStyle;rounded=0;orthogonalLoop=1;jettySize=auto;html=1;exitX=1;exitY=0.5;exitDx=0;exitDy=0;entryX=0;entryY=0.5;entryDx=0;entryDy=0;fontSize=16;" edge="1" parent="1" source="aKyzVVl0rhLCT20Bn6Dx-2" target="aKyzVVl0rhLCT20Bn6Dx-3">
          <mxGeometry relative="1" as="geometry" />
        </mxCell>
        <mxCell id="aKyzVVl0rhLCT20Bn6Dx-2" value="var t" style="rounded=0;whiteSpace=wrap;html=1;fontSize=16;" vertex="1" parent="1">
          <mxGeometry x="70" y="80" width="120" height="60" as="geometry" />
        </mxCell>
        <mxCell id="aKyzVVl0rhLCT20Bn6Dx-3" value="&lt;p style=&quot;margin: 0px; font-stretch: normal; font-size: 16px; line-height: normal; font-family: &amp;quot;helvetica neue&amp;quot;;&quot;&gt;XJPerson(name: &quot;xj&quot;, hobby: &quot;swimming&quot;)&lt;/p&gt;" style="rounded=1;whiteSpace=wrap;html=1;fontSize=16;" vertex="1" parent="1">
          <mxGeometry x="360" y="80" width="350" height="60" as="geometry" />
        </mxCell>
        <mxCell id="aKyzVVl0rhLCT20Bn6Dx-4" value="reference" style="text;html=1;strokeColor=none;fillColor=none;align=center;verticalAlign=middle;whiteSpace=wrap;rounded=0;fontSize=16;" vertex="1" parent="1">
          <mxGeometry x="240" y="70" width="80" height="30" as="geometry" />
        </mxCell>
      </root>
    </mxGraphModel>
  </diagram>
</mxfile>
